<svg xmlns="http://www.w3.org/2000/svg" xmlns:xlink="http://www.w3.org/1999/xlink" width="40" height="40" viewBox="0 0 40 40">
  <defs>
    <linearGradient id="linear-gradient" x1="0.5" y1="1" x2="0.5" gradientUnits="objectBoundingBox">
      <stop offset="0" stop-color="#fd3a84"/>
      <stop offset="1" stop-color="#ffa68d"/>
    </linearGradient>
    <linearGradient id="linear-gradient-2" x1="0.5" y1="1" x2="0.5" gradientUnits="objectBoundingBox">
      <stop offset="0" stop-color="#ffc2cc"/>
      <stop offset="1" stop-color="#fff2f4"/>
    </linearGradient>
  </defs>
  <g id="Group_14558" data-name="Group 14558" transform="translate(17522 330)">
    <path id="Path_113357" data-name="Path 113357" d="M1417,146a20,20,0,1,0-20,20A20,20,0,0,0,1417,146Z" transform="translate(-18899 -456)" fill="#f2f4f7"/>
    <g id="Discount_5_" transform="translate(-17510.002 -318.002)">
      <g id="Group_14555" data-name="Group 14555" transform="translate(0 0)">
        <g id="Group_14554" data-name="Group 14554">
          <path id="Path_113355" data-name="Path 113355" d="M15.246,6.735a1.172,1.172,0,0,1-.451-.554,1.176,1.176,0,0,1,.114-.706,1.626,1.626,0,0,0,0-1.459,1.626,1.626,0,0,0-1.262-.734,1.174,1.174,0,0,1-.668-.254,1.178,1.178,0,0,1-.255-.668A1.624,1.624,0,0,0,11.987,1.1a1.627,1.627,0,0,0-1.46,0,1.174,1.174,0,0,1-.705.114A1.175,1.175,0,0,1,9.269.757,1.651,1.651,0,0,0,8,0,1.651,1.651,0,0,0,6.735.757a1.176,1.176,0,0,1-.553.451,1.174,1.174,0,0,1-.705-.114,1.623,1.623,0,0,0-1.46,0,1.624,1.624,0,0,0-.734,1.262,1.178,1.178,0,0,1-.255.668,1.174,1.174,0,0,1-.668.254A1.624,1.624,0,0,0,1.1,4.017a1.624,1.624,0,0,0-.006,1.46,1.176,1.176,0,0,1,.114.706,1.172,1.172,0,0,1-.451.554A1.648,1.648,0,0,0,0,8,1.648,1.648,0,0,0,.757,9.268a1.172,1.172,0,0,1,.451.554,1.176,1.176,0,0,1-.114.706,1.626,1.626,0,0,0,0,1.459,1.626,1.626,0,0,0,1.262.734,1.174,1.174,0,0,1,.668.254,1.178,1.178,0,0,1,.255.668A1.624,1.624,0,0,0,4.017,14.9a1.63,1.63,0,0,0,1.46,0,1.188,1.188,0,0,1,.705-.114,1.175,1.175,0,0,1,.553.451A1.651,1.651,0,0,0,8,16a1.651,1.651,0,0,0,1.267-.757,1.176,1.176,0,0,1,.553-.451,1.188,1.188,0,0,1,.705.114,1.633,1.633,0,0,0,1.46,0,1.624,1.624,0,0,0,.734-1.262,1.178,1.178,0,0,1,.255-.668,1.174,1.174,0,0,1,.668-.254,1.624,1.624,0,0,0,1.261-.734,1.624,1.624,0,0,0,.006-1.46,1.176,1.176,0,0,1-.114-.706,1.172,1.172,0,0,1,.451-.554A1.648,1.648,0,0,0,16,8a1.648,1.648,0,0,0-.757-1.266Z" transform="translate(0 0)" fill="url(#linear-gradient)"/>
        </g>
      </g>
      <g id="Group_14557" data-name="Group 14557" transform="translate(4.251 5.189)">
        <g id="Group_14556" data-name="Group 14556">
          <path id="Path_113356" data-name="Path 113356" d="M138.813,167.407a1.407,1.407,0,1,0-1.407,1.407A1.408,1.408,0,0,0,138.813,167.407Zm3.282,1.407a1.407,1.407,0,1,0,1.407,1.407A1.408,1.408,0,0,0,142.1,168.813Zm-.176-2.711a.471.471,0,0,0-.659.073l-3.751,4.689a.469.469,0,0,0,.733.586l3.751-4.689A.47.47,0,0,0,141.919,166.1Z" transform="translate(-136 -166)" fill="url(#linear-gradient-2)"/>
        </g>
      </g>
    </g>
  </g>
</svg>
