<svg xmlns="http://www.w3.org/2000/svg" xmlns:xlink="http://www.w3.org/1999/xlink" width="38" height="18" viewBox="0 0 38 18">
  <defs>
    <clipPath id="clip-path">
      <path id="Path_2728" data-name="Path 2728" d="M54.67-33.077a3.1,3.1,0,0,1,4.415,0,3.17,3.17,0,0,1,0,4.456h0L54.3-23.79v4.631A3.144,3.144,0,0,1,51.167-16a3.145,3.145,0,0,1-3.131-3.159h0V-23.79l-4.788-4.831a3.17,3.17,0,0,1,0-4.456,3.1,3.1,0,0,1,4.415,0h0l3.5,3.536ZM37.651-34a3.146,3.146,0,0,1,3.131,3.16h0V-19.16A3.143,3.143,0,0,1,37.651-16a3.144,3.144,0,0,1-3.13-3.159h0v-5.466l-3.13,3.159-3.128-3.159v5.466A3.144,3.144,0,0,1,25.131-16,3.144,3.144,0,0,1,22-19.16h0V-30.838A3.146,3.146,0,0,1,25.131-34a3.02,3.02,0,0,1,2.217.931h0L31.39-28.99l4.044-4.077A3.018,3.018,0,0,1,37.651-34Z" transform="translate(0)" fill="#272a37" clip-rule="evenodd"/>
    </clipPath>
    <clipPath id="clip-path-2">
      <path id="Path_2727" data-name="Path 2727" d="M-435,1351H1472.451V-61H-435Z" transform="translate(435 61)" fill="#272a37"/>
    </clipPath>
  </defs>
  <g id="Group_3497" data-name="Group 3497" transform="translate(-22 34)" clip-path="url(#clip-path)">
    <g id="Group_3496" data-name="Group 3496" transform="translate(-432.013 -61)" clip-path="url(#clip-path-2)">
      <path id="Path_2726" data-name="Path 2726" d="M17-39H64.935v28H17Z" transform="translate(432.046 61)" fill="#272a37"/>
    </g>
  </g>
</svg>
