<svg id="Component_46_1" data-name="Component 46 – 1" xmlns="http://www.w3.org/2000/svg" width="32" height="32" viewBox="0 0 32 32">
  <rect id="bound" width="32" height="32" rx="16" fill="#f1f3f6" opacity="0"/>
  <g id="Group_11867" data-name="Group 11867">
    <path id="Combined-Shape" d="M5,7H19a2,2,0,0,1,2,2v8a2,2,0,0,1-2,2H5a2,2,0,0,1-2-2V9A2,2,0,0,1,5,7Zm7,10a4,4,0,1,0-4-4A4,4,0,0,0,12,17Z" transform="translate(4 4)" fill="#8996ae" fill-rule="evenodd"/>
    <rect id="Rectangle" width="6" height="2" rx="1" transform="translate(13 8)" fill="#8996ae" opacity="0.3"/>
    <circle id="Oval-2" cx="2" cy="2" r="2" transform="translate(14 15)" fill="#8996ae" opacity="0.3"/>
  </g>
</svg>
